<?xml version="1.0" encoding="UTF-8"?>
<svg version="1.1" xmlns="http://www.w3.org/2000/svg" width="500" height="500">
<path d="M0 0 C165 0 330 0 500 0 C500 165 500 330 500 500 C335 500 170 500 0 500 C0 335 0 170 0 0 Z " fill="#FEF1ED" transform="translate(0,0)"/>
<path d="M0 0 C2.26825569 0.01074887 4.5357227 0.00001872 6.80395508 -0.01269531 C19.02307097 -0.02614627 30.60795719 1.25702271 42.3293457 4.88574219 C43.59331177 5.27379028 43.59331177 5.27379028 44.8828125 5.66967773 C76.41471941 15.64210933 103.51838158 33.88935419 123.7043457 60.26074219 C124.31407227 61.05480469 124.92379883 61.84886719 125.55200195 62.66699219 C144.61092252 88.71563077 154.1863071 119.30211078 154.0168457 151.44824219 C154.01411148 152.52983109 154.01411148 152.52983109 154.01132202 153.63327026 C153.96289639 165.04231677 153.43992576 176.14184531 150.7043457 187.26074219 C150.54337402 187.9163916 150.38240234 188.57204102 150.21655273 189.24755859 C144.44882091 211.60375257 133.82642185 232.80759501 118.7043457 250.26074219 C118.03145508 251.05480469 117.35856445 251.84886719 116.6652832 252.66699219 C106.9196471 263.86561403 96.17616997 273.24084488 83.7043457 281.26074219 C82.9102832 281.79054688 82.1162207 282.32035156 81.2980957 282.86621094 C69.06100479 290.68202414 54.67778791 296.45286957 40.7043457 300.26074219 C39.65077881 300.55489014 39.65077881 300.55489014 38.57592773 300.85498047 C26.37182952 304.10462386 14.31959703 304.63227129 1.7668457 304.63574219 C0.65460632 304.63859726 0.65460632 304.63859726 -0.48010254 304.64151001 C-13.81404755 304.63763494 -26.69381607 303.40380044 -39.5456543 299.63574219 C-40.43333496 299.37704346 -41.32101563 299.11834473 -42.2355957 298.85180664 C-81.01330053 287.11344777 -113.93132589 259.67235216 -133.31518555 224.19824219 C-137.30770933 216.51985232 -140.31944731 208.37417919 -143.2956543 200.26074219 C-143.71975586 199.10574219 -144.14385742 197.95074219 -144.58081055 196.76074219 C-153.10528426 171.34938328 -153.89142174 139.03085731 -146.2956543 113.26074219 C-146.08134766 112.50631836 -145.86704102 111.75189453 -145.64624023 110.97460938 C-134.01743024 70.84082701 -106.74991266 37.63540399 -70.29760742 17.43115234 C-60.45469601 12.1085675 -50.51328111 8.15733365 -39.7956543 5.01074219 C-38.96590088 4.76428955 -38.13614746 4.51783691 -37.28125 4.26391602 C-24.96579553 0.80784755 -12.71555733 -0.07147433 0 0 Z " fill="#BDA69F" transform="translate(248.295654296875,97.7392578125)"/>
<path d="M0 0 C3.3 0 6.6 0 10 0 C10 26.07 10 52.14 10 79 C6.7 79 3.4 79 0 79 C-0.495 75.04 -0.495 75.04 -1 71 C-1.42410156 71.39832031 -1.84820312 71.79664063 -2.28515625 72.20703125 C-9.46489203 78.69246291 -15.01564853 80.65216787 -24.70703125 80.41796875 C-32.16656568 79.47114765 -38.22162008 75.76216402 -43 70 C-49.88584219 60.55655928 -50.19345212 51.3639564 -49 40 C-46.7400444 31.32807734 -40.70555289 25.81016935 -33.20703125 21.33203125 C-26.41151744 18.50953404 -17.35192715 18.85741937 -10.375 21.1875 C-6.87893881 23.06501434 -4.59255358 25.01463527 -2 28 C-1.67 28.33 -1.34 28.66 -1 29 C-0.67 19.43 -0.34 9.86 0 0 Z " fill="#FDFCFC" transform="translate(283,208)"/>
<path d="M0 0 C6.88060746 3.98848399 12.04903108 9.88787444 14.375 17.5625 C15.41800821 26.5312841 15.87810662 36.68005406 10.98046875 44.5546875 C5.06159672 51.95687783 -2.05036941 56.80620262 -11.61328125 57.90625 C-20.23311239 58.16911652 -28.06049746 56.54282056 -34.9921875 51.20703125 C-41.44227059 44.7106557 -44.59219856 36.32236301 -45 27.3125 C-44.793625 18.46265437 -41.87188451 10.65123083 -35.640625 4.2890625 C-25.66430135 -4.25654807 -11.90185481 -5.35284425 0 0 Z " fill="#FCFCFC" transform="translate(352.625,230.4375)"/>
<path d="M0 0 C6.84605312 5.72833016 10.99389119 11.83999576 11.92578125 20.890625 C12.3113002 29.92461911 10.14673747 37.78078382 4.35546875 44.82421875 C-1.68723822 51.15159286 -9.13819068 54.64763778 -17.89453125 54.88671875 C-26.81286096 54.7463463 -34.51783859 51.68640978 -40.83203125 45.26171875 C-46.55176834 37.57899496 -48.48816565 27.76268671 -47.33203125 18.38671875 C-45.6047386 10.08242717 -41.89863523 3.96167461 -34.95703125 -0.92578125 C-23.82626807 -7.80228239 -10.83212356 -7.49357961 0 0 Z " fill="#FCFBFB" transform="translate(218.33203125,233.61328125)"/>
<path d="M0 0 C5.10627976 3.5257646 8.22643656 7.08559291 10.625 12.8125 C11.58490759 19.99320408 12.01845321 27.68657254 8.125 34.0625 C4.05277281 39.0154647 0.01938849 41.38820144 -6.34375 42.18359375 C-11.09388632 42.37759684 -14.47981691 42.23567746 -18.8125 40.1875 C-25.39787175 34.08398472 -28.27769481 28.99317155 -28.8125 20 C-28.66326087 13.01774088 -25.776126 7.15506195 -20.8125 2.3125 C-14.07713309 -1.83234117 -7.62246856 -2.68197968 0 0 Z " fill="#BDA7A0" transform="translate(346.375,237.1875)"/>
<path d="M0 0 C6.29254991 3.3882961 10.14767541 6.83593785 12.25 13.75 C13.27271544 21.34288739 12.63383719 28.32037212 8.25 34.75 C3.5640131 39.69689931 0.05457989 41.92245481 -6.8125 42.1875 C-12.63185791 42.12312657 -16.3595084 41.25595474 -20.9375 37.62890625 C-26.03125496 32.34852664 -27.00457284 26.88529742 -27.3125 19.6875 C-27.08506484 12.40957501 -25.28212047 8.26445987 -20.1875 3.1953125 C-14.10234993 -2.19004531 -7.49313913 -2.49771304 0 0 Z " fill="#BDA7A0" transform="translate(270.75,237.25)"/>
<path d="M0 0 C5.5784377 2.58998893 9.23520519 6.97463746 12.3125 12.25 C14.11606261 19.46425046 13.68457136 27.44291742 10 34 C5.96620514 38.47919305 2.28354345 41.64514373 -3.85546875 42.30859375 C-10.5268026 42.56668756 -15.31716529 42.49908194 -20.41015625 37.890625 C-25.29388258 32.08295045 -26.63488914 26.1419411 -26.3203125 18.64453125 C-25.5000294 11.87219391 -23.3152882 7.42940683 -18 3 C-12.30599156 -1.05169513 -6.76213531 -0.75892817 0 0 Z " fill="#BDA7A0" transform="translate(207,237)"/>
<path d="M0 0 C16.83 0 33.66 0 51 0 C51 2.64 51 5.28 51 8 C44.07 8 37.14 8 30 8 C30 29.78 30 51.56 30 74 C27.03 74 24.06 74 21 74 C21 52.22 21 30.44 21 8 C14.07 8 7.14 8 0 8 C0 5.36 0 2.72 0 0 Z " fill="#FCFCFB" transform="translate(110,213)"/>
</svg>
